<?xml version="1.0" encoding="utf-8"?>
<!-- Generator: Adobe Illustrator 19.2.1, SVG Export Plug-In . SVG Version: 6.00 Build 0)  -->
<svg version="1.1" id="Layer_1" xmlns="http://www.w3.org/2000/svg" xmlns:xlink="http://www.w3.org/1999/xlink" x="0px" y="0px"
	 viewBox="0 0 400 500" style="enable-background:new 0 0 400 500;" xml:space="preserve">
<style type="text/css">
	.st0{fill:#C4D942;}
	.st1{fill:#58595B;}
	.st2{fill:#007E7A;}
</style>
<g>
	<g>
		<path class="st0" d="M281.1,58c-21.5-16.9-48.6-26.8-77.7-26.6l-1.8-27.7c37-0.8,71.4,11.2,99,32.2L281.1,58z"/>
		<path class="st1" d="M94.1,49c24.7-24.3,57.3-40.6,94.1-44.4l1.8,27.7c-28.9,3.4-54.6,16.7-73.8,36.2L94.1,49z"/>
		<path class="st1" d="M80.5,156.3l-33.7,2.1c0.8-37.8,14.9-72.6,38.1-99.6l22.4,19.7C90.3,100,80.3,127.1,80.5,156.3z"/>
		<path class="st1" d="M291.2,66.8l19.7-22.4c26.5,23.9,44.9,56.6,50.4,94l-33.7,2.1C324.2,111.6,310.8,86,291.2,66.8z"/>
		<path class="st1" d="M328.6,154l34.3-2.2c2.5,39.5-9.7,76.5-31.9,105.7L302,232C319,210.4,328.9,183.2,328.6,154z"/>
		<path class="st1" d="M81.3,169.7c3.3,29,16.6,54.8,36.2,74l-25.5,28.9c-25.7-26.2-42.5-61.3-45-100.8L81.3,169.7z"/>
		<path class="st0" d="M127.6,252.7c21.6,17.1,48.8,27.1,78.1,26.8l2.6,40.5l-64.5,4.1l-46.4,26.9l4.5-69.1L127.6,252.7z"/>
		<path class="st1" d="M322.4,267.8c-25.3,28-60.5,47.1-100.7,51.3l-2.6-40.5c29.1-3.4,54.8-16.8,74-36.5L322.4,267.8z"/>
		<path class="st2" d="M202.7,235.6c-106.9,0-100.8-167.1,7.3-167.1c19.7,0,44.4,7.6,51.3,21.7c0,6.5-7.8,20.6-18.4,25.4l-4.7-3.7
			c0-13.6-24.7-22.6-50.7-7.5C150.1,125.9,150.6,209,215,204.7l0,0c43.4-4.3,80-29.5,99.7-55.2C311.6,92,264,46.1,205.7,46.1
			c-60.3,0-109.3,49-109.3,109.3c0,60.3,49,109.3,109.3,109.3c54.5,0,99.7-40.1,107.8-92.4C268.7,240.7,202.7,235.6,202.7,235.6"/>
	</g>
	<g>
		<g>
			<path class="st1" d="M57.4,438.2c1.1,1.8,2,4,2.8,6.6c0.7,2.6,1.1,5.9,1.1,10.1c-3.3,1.4-6.8,2.5-10.4,3.1
				c-3.7,0.6-7.7,0.9-12.1,0.9c-11.7,0-20.2-2.8-25.6-8.5c-5.4-5.7-8.1-13.5-8.1-23.4c0-6,1-12.1,3-18.2c2-6.1,4.9-11.6,8.8-16.4
				c3.9-4.9,8.7-8.8,14.3-11.9c5.7-3.1,12.2-4.6,19.7-4.6c3.5,0,6.9,0.3,10.1,0.8c3.3,0.5,6.4,1.3,9.4,2.5c-0.1,2.7-0.6,5.5-1.4,8.5
				c-0.8,3-2.1,5.9-3.8,8.7c-2.3-0.9-4.5-1.6-6.7-2.1c-2.2-0.5-4.6-0.8-7.3-0.8c-4,0-7.5,0.9-10.4,2.7c-3,1.8-5.4,4.1-7.4,7.1
				c-2,2.9-3.5,6.3-4.4,10c-1,3.8-1.5,7.7-1.5,11.8c0,5.6,1.4,9.8,4.3,12.4c2.9,2.7,6.5,4,10.9,4c2.2,0,4.5-0.2,6.7-0.6
				C51.4,440.4,54.1,439.6,57.4,438.2z"/>
			<path class="st1" d="M97.1,458.9c-10.5,0-18.3-2.8-23.2-8.3c-5-5.5-7.4-13.1-7.4-22.7c0-6.1,0.9-12.3,2.8-18.5
				c1.8-6.2,4.6-11.8,8.3-16.7c3.7-5,8.3-9,13.9-12.1c5.6-3.1,12.1-4.7,19.6-4.7c10.6,0,18.4,2.8,23.4,8.4c5,5.6,7.4,13.2,7.4,22.9
				c0,6.3-0.9,12.6-2.7,18.7c-1.8,6.1-4.5,11.7-8.2,16.6c-3.7,4.9-8.3,8.9-14,11.9C111.3,457.4,104.7,458.9,97.1,458.9z M99.1,442.4
				c3.9,0,7.2-1.2,9.8-3.7c2.7-2.5,4.8-5.5,6.5-9.1c1.7-3.6,2.9-7.5,3.6-11.5c0.7-4,1.1-7.7,1.1-11c0-9.4-3.8-14.1-11.5-14.1
				c-3.9,0-7.1,1.3-9.7,3.8c-2.6,2.6-4.7,5.7-6.3,9.4c-1.6,3.7-2.8,7.6-3.5,11.7c-0.7,4.1-1,7.7-1,10.9
				C88.2,437.8,91.9,442.4,99.1,442.4z"/>
			<path class="st1" d="M216.4,422.7c-1.1,6.4-1.9,12.1-2.5,17.1c-0.5,5-0.8,8.8-0.8,11.6c0,1.1,0,2.1,0,2.8c0,0.8,0.1,1.6,0.2,2.5
				c-3.4,0.6-6.7,0.9-10,0.9c-2.9,0-6-0.3-9.5-0.9c-0.2-0.8-0.4-1.8-0.6-2.9c-0.2-1.1-0.3-2.8-0.3-5.1c0-0.9,0-2,0.1-3.2
				c0.1-1.2,0.2-2.5,0.4-3.8c-1.4,2.4-3.1,4.6-5.1,6.7c-2,2.1-4.2,3.9-6.6,5.4c-2.4,1.5-5,2.8-7.7,3.7c-2.8,0.9-5.7,1.4-8.7,1.4
				c-6.8,0-11.8-2.1-15.2-6.4c-3.4-4.3-5.1-10-5.1-17c0-7.7,1.1-15.1,3.5-22.2c2.3-7.2,5.7-13.5,10.3-19c4.5-5.5,10.2-9.9,16.9-13.3
				c6.8-3.3,14.6-5,23.6-5c0.7,0,1.4,0,2.1,0.1c0.7,0.1,1.3,0.1,1.8,0.1c1.1-6,1.9-11.1,2.4-15.3c0.5-4.2,0.7-7.7,0.7-10.4
				c0-1.1,0-2.1-0.1-2.8c-0.1-0.8-0.1-1.6-0.2-2.5c1.7-0.3,3.7-0.5,6-0.7c2.2-0.2,4.2-0.2,5.8-0.2c3,0,6.2,0.3,9.8,0.9
				c0.5,1.5,0.8,3.5,0.8,5.8c0,4.5-0.6,10-1.8,16.4L216.4,422.7z M200,394.2c-0.9-0.2-1.8-0.3-2.7-0.4c-0.9-0.1-1.7-0.1-2.5-0.1
				c-4.9,0-9.1,1.2-12.5,3.7c-3.4,2.5-6.3,5.5-8.5,9.2c-2.3,3.7-3.9,7.6-4.9,11.9c-1,4.2-1.5,8.1-1.5,11.6c0,7.6,2.5,11.4,7.5,11.4
				c4.9,0,9.5-3,13.7-9c4.2-6,7.3-14.4,9.2-25.2L200,394.2z"/>
			<path class="st1" d="M243.7,427c0.6,4.9,2.2,8.6,4.9,11c2.7,2.4,6.5,3.6,11.7,3.6c4.1,0,7.7-0.4,10.8-1.3c3.1-0.9,6.4-2,9.9-3.5
				c1.6,2,2.7,4.5,3.3,7.4c0.6,2.9,0.8,6,0.8,9.3c-1.7,0.8-3.8,1.6-6.1,2.2c-2.3,0.7-4.7,1.2-7.1,1.7c-2.5,0.5-4.9,0.8-7.4,1.1
				c-2.5,0.3-4.7,0.4-6.6,0.4c-6.2,0-11.6-0.8-16-2.3c-4.4-1.5-8.1-3.7-11-6.5c-2.9-2.8-5.1-6.2-6.4-10.3c-1.4-4-2.1-8.5-2.1-13.4
				c0-6.2,1.1-12.4,3.2-18.4c2.1-6,5.2-11.4,9.1-16.2c3.9-4.8,8.7-8.6,14.4-11.5c5.7-2.9,12-4.4,19.1-4.4c3.4,0,6.5,0.4,9.4,1.2
				c2.9,0.8,5.4,2.1,7.6,3.8c2.1,1.7,3.8,3.8,5.1,6.2c1.2,2.5,1.8,5.3,1.8,8.6c0,4.6-1.1,8.6-3.2,12c-2.1,3.4-5,6.2-8.6,8.6
				c-3.6,2.4-7.6,4.3-12.2,5.8c-4.6,1.5-9.3,2.6-14.2,3.3L243.7,427z M252.4,411.4c3.9-0.6,7.1-1.4,9.5-2.4c2.5-1,4.4-2,5.8-3.2
				c1.4-1.2,2.4-2.4,2.9-3.6c0.5-1.2,0.8-2.5,0.8-3.7c0-1.9-0.6-3.5-1.9-4.8c-1.3-1.2-3-1.8-5.1-1.8c-2.7,0-5.1,0.6-7.3,1.8
				c-2.2,1.2-4.1,2.7-5.8,4.7c-1.6,1.9-3,4.2-4.2,6.7c-1.2,2.5-2.1,5-2.7,7.6L252.4,411.4z"/>
			<path class="st1" d="M310.2,395.8h-12.7c0-2.8,0.2-5.5,0.6-8.1c0.4-2.7,1.2-5.5,2.3-8.4h12.7l0.3-1.2c2-11.5,6-19.9,11.8-25.3
				c5.8-5.4,13.5-8.1,23.2-8.1c3,0,5.6,0.2,7.9,0.5c2.3,0.3,4.6,0.8,7,1.5c-0.7,3.4-1.5,6.4-2.5,9.1c-0.9,2.7-2.1,5.3-3.5,8
				c-1.3-0.4-2.7-0.7-4-1c-1.3-0.3-2.8-0.4-4.3-0.4c-1.8,0-3.5,0.2-5,0.7c-1.5,0.5-2.8,1.3-4,2.4c-1.2,1.1-2.2,2.7-3.1,4.8
				c-0.9,2-1.6,4.7-2.2,7.8l-0.3,1.4h16.7c0,3-0.2,5.7-0.6,8.2c-0.4,2.5-1.2,5.3-2.3,8.4h-16.7l-11,62c-1.3,7.5-3.1,13.7-5.4,18.6
				c-2.3,4.9-5,8.8-8.1,11.7c-3.1,2.9-6.5,5-10.4,6.1c-3.9,1.2-8.1,1.8-12.6,1.8c-4.7,0-9.4-0.7-14-2.1c0.5-6.1,2.2-11.7,5.1-16.6
				c1.1,0.4,2.4,0.7,3.8,1c1.4,0.3,2.5,0.4,3.3,0.4c1.9,0,3.8-0.3,5.5-0.8c1.7-0.6,3.3-1.7,4.8-3.4c1.5-1.7,2.8-4,4-7
				c1.2-3,2.2-6.9,3-11.7L310.2,395.8z"/>
			<g>
				<path class="st1" d="M364.7,395.8H355c0-0.3,0-0.6-0.1-0.9c-0.1-0.3-0.1-0.7-0.1-1.1c0-2.7,0.3-5.1,0.8-7.4
					c0.5-2.3,1.3-4.7,2.3-7.1h31l-14,79.3c-3.9,0.6-7.6,0.9-11,0.9c-3.2,0-6.6-0.3-10.3-0.9L364.7,395.8z M369.2,365.9
					c-0.1-3.6,0.1-7,0.7-10.2c0.6-3.2,1.5-6.6,2.7-10.2c1.8-0.4,3.8-0.7,5.8-0.8c2-0.2,3.9-0.2,5.5-0.2c1.6,0,3.5,0.1,5.4,0.2
					c2,0.2,3.9,0.4,5.6,0.8c0,3.6-0.3,7-0.9,10.3c-0.6,3.3-1.5,6.6-2.8,10.1c-1.8,0.3-3.8,0.5-5.8,0.6c-2,0.1-3.8,0.2-5.4,0.2
					c-1.5,0-3.3-0.1-5.4-0.2C372.6,366.4,370.8,366.2,369.2,365.9z"/>
			</g>
		</g>
	</g>
</g>
</svg>
